<?xml version="1.0" encoding="utf-8"?>
<!-- Generator: Adobe Illustrator 24.3.0, SVG Export Plug-In . SVG Version: 6.00 Build 0)  -->
<svg version="1.1" id="Layer_1" xmlns="http://www.w3.org/2000/svg" xmlns:xlink="http://www.w3.org/1999/xlink" x="0px" y="0px"
	 viewBox="0 0 1091.16 248.02" style="enable-background:new 0 0 1091.16 248.02;" xml:space="preserve">
<g>
	<g>
		<g>
			<g>
				<linearGradient id="SVGID_1_" gradientUnits="userSpaceOnUse" x1="298.3517" y1="26.9071" x2="66.7525" y2="258.5063">
					<stop  offset="5.586592e-03" style="stop-color:#05E7DC"/>
					<stop  offset="0.9944" style="stop-color:#005CFD"/>
				</linearGradient>
				<path style="fill:url(#SVGID_1_);" d="M339.95,153.6c0,50.66-40.11,92.13-90.22,94.32v0.1h-54.12l21.55-21.53l5.28-5.29h23.11
					c27.68,0,51.52-16.72,61.96-40.6c3.62-8.26,5.63-17.41,5.63-27c0-5.66-0.7-11.17-2.02-16.42
					c-7.35-29.35-33.96-51.17-65.57-51.17c-37.27,0-67.59,30.32-67.59,67.59h-26.81c0-6.78,0.72-13.39,2.08-19.78
					c7.06-33.02,31.46-59.68,63.15-69.99c0,0,0.05-0.02,0.15-0.05c2.61-0.84,5.26-1.58,7.96-2.19c0.58-0.13,1.2-0.27,1.84-0.4
					c0.32-0.07,0.66-0.13,0.99-0.2c0.25-0.06,0.5-0.1,0.75-0.15c-5.96-10.11-14.41-18.49-24.39-24.39
					c-10.37-6.15-22.39-9.63-34.96-9.63c-31.97,0-60.2,22.61-67.15,53.8l-2.23,10.03l-10.29,0.44c-34.9,1.5-62.24,30.05-62.24,65.02
					c0,6.24,0.88,12.32,2.56,18.03L8.56,194.82C3.07,183.05,0,169.94,0,156.11c0-46.03,33.56-84.2,78.06-90.85
					C90.96,26.91,127.62,0,168.72,0c24,0,46.54,9.13,63.69,24.45c10.76,9.6,19.41,21.64,24.96,35.38c0.02,0.05,0.04,0.09,0.06,0.14
					c5.81,0.74,11.45,2,16.88,3.74c0.12,0.04,0.24,0.08,0.36,0.12C312.51,76.13,339.95,111.71,339.95,153.6z"/>
				<linearGradient id="SVGID_2_" gradientUnits="userSpaceOnUse" x1="295.356" y1="23.9037" x2="63.7556" y2="255.5041">
					<stop  offset="5.586592e-03" style="stop-color:#05E7DC"/>
					<stop  offset="0.9944" style="stop-color:#005CFD"/>
				</linearGradient>
				<path style="fill:url(#SVGID_2_);" d="M234.97,175.32h32.29V131.9h-43.42v32.26l-57.08,57.05H91.91
					c-11.04,0-21.47-2.76-30.58-7.65c-5.19-2.76-9.95-6.21-14.18-10.22c-0.03-0.03-0.05-0.05-0.08-0.08c0,0,0,0,0,0l31.48-31.29
					h32.29v-43.42H67.41v32.26l-30.43,30.24l-19.31,19.2c3.11,4.27,6.58,8.27,10.38,11.92l0,0c0,0,0,0,0,0
					c4.2,4.05,8.75,7.7,13.64,10.9c14.43,9.46,31.69,14.97,50.21,14.97h48h22.32h0l26.83-26.81h0L234.97,175.32z"/>
			</g>
			<g>
				<g>
					<path style="fill:#0060FC;" d="M456.39,123.92c-5.61,4.02-12.49,6.03-20.63,6.03c-5.56,0-10.45-0.94-14.67-2.83
						c-4.22-1.89-7.77-4.54-10.65-7.97c-2.88-3.43-5.04-7.42-6.48-11.99c-1.44-4.57-2.16-9.53-2.16-14.9
						c0-5.56,0.72-10.62,2.16-15.19c1.44-4.57,3.55-8.54,6.33-11.92c2.78-3.37,6.26-5.98,10.43-7.82c4.17-1.84,8.94-2.76,14.3-2.76
						c5.26,0,9.98,0.87,14.15,2.61c4.17,1.74,7.62,4.32,10.35,7.75c2.73,3.43,4.49,7.62,5.29,12.59h21.3
						c-0.89-8.54-3.53-16.01-7.89-22.42c-4.37-6.41-10.2-11.37-17.5-14.9c-7.3-3.52-15.86-5.29-25.69-5.29
						c-9.44,0-17.6,1.61-24.5,4.84c-6.9,3.23-12.59,7.52-17.06,12.88c-4.47,5.36-7.77,11.32-9.91,17.87
						c-2.14,6.55-3.2,13.21-3.2,19.96v3.28c0,6.06,1.04,12.36,3.13,18.92c2.09,6.55,5.34,12.61,9.76,18.17
						c4.42,5.56,10.15,10.08,17.2,13.55c7.05,3.47,15.49,5.21,25.32,5.21c10.33,0,19.22-1.94,26.66-5.81
						c7.45-3.87,13.31-9.03,17.58-15.49c4.27-6.45,6.9-13.56,7.89-21.3h-21.3C465.4,114.27,462,119.9,456.39,123.92z"/>
					<polygon style="fill:#0060FC;" points="488.58,38.05 488.58,53.54 498.71,53.54 498.71,146.79 519.41,146.79 519.41,53.54 
						519.41,38.05 498.71,38.05 					"/>
					<path style="fill:#0060FC;" d="M616.93,89.07c-1.98-5.02-4.89-9.48-8.71-13.41c-3.83-3.92-8.47-7-13.93-9.23
						c-5.46-2.24-11.62-3.36-18.47-3.36c-6.85,0-13.01,1.12-18.47,3.36c-5.46,2.23-10.11,5.31-13.93,9.23
						c-3.82,3.93-6.75,8.39-8.79,13.41c-2.03,5.01-3.05,10.3-3.05,15.86v3.13c0,5.36,0.97,10.53,2.91,15.49
						c1.93,4.97,4.79,9.41,8.56,13.33c3.77,3.93,8.39,7.03,13.85,9.31c5.46,2.28,11.77,3.43,18.92,3.43
						c7.05,0,13.31-1.15,18.77-3.43c5.46-2.28,10.08-5.38,13.85-9.31c3.77-3.92,6.63-8.36,8.57-13.33c1.93-4.96,2.9-10.13,2.9-15.49
						v-3.13C619.91,99.37,618.92,94.08,616.93,89.07z M596.53,119.45c-1.79,3.83-4.42,6.86-7.9,9.09
						c-3.48,2.24-7.75,3.35-12.81,3.35s-9.33-1.11-12.81-3.35c-3.48-2.23-6.13-5.26-7.97-9.09c-1.84-3.82-2.75-8.16-2.75-13.03
						c0-4.96,0.94-9.36,2.83-13.18c1.88-3.82,4.59-6.85,8.11-9.09c3.53-2.23,7.72-3.35,12.59-3.35s9.06,1.12,12.59,3.35
						c3.52,2.24,6.2,5.27,8.04,9.09s2.76,8.22,2.76,13.18C599.21,111.29,598.31,115.63,596.53,119.45z"/>
					<path style="fill:#0060FC;" d="M682.78,113.57c0,5.26-1.51,9.44-4.54,12.51c-3.03,3.08-6.93,4.62-11.69,4.62
						c-4.77,0-8.54-1.46-11.32-4.39c-2.78-2.93-4.17-6.88-4.17-11.84V65.76h-20.7v46.92c0,12.12,2.56,21.25,7.67,27.41
						c5.11,6.16,12.34,9.23,21.67,9.23h0.89c6.26,0,11.47-1.39,15.64-4.17c4.17-2.78,7.3-6.9,9.38-12.36
						c0.58-1.52,1.07-3.15,1.49-4.88v18.88h16.38V65.76h-20.7V113.57z"/>
					<path style="fill:#0060FC;" d="M781.14,38.05v39.4c-2.7-4.32-6.1-7.65-10.21-9.98c-4.81-2.73-10.4-4.1-16.75-4.1
						c-5.77,0-11,1.07-15.72,3.21c-4.72,2.13-8.74,5.09-12.06,8.86c-3.33,3.77-5.91,8.19-7.75,13.25
						c-1.84,5.07-2.76,10.48-2.76,16.24v3.13c0,5.86,0.95,11.3,2.83,16.31c1.89,5.01,4.57,9.41,8.05,13.18
						c3.47,3.78,7.59,6.71,12.36,8.79c4.77,2.09,9.98,3.13,15.64,3.13c6.36,0,12.04-1.37,17.06-4.1c5.01-2.73,9.06-6.85,12.14-12.36
						c0.54-0.98,1.03-2.01,1.49-3.08v16.86h16.38V38.05H781.14z M781.73,108.8c0,4.77-1.02,8.92-3.05,12.44
						c-2.04,3.53-4.74,6.21-8.12,8.05c-3.38,1.83-7.1,2.75-11.17,2.75c-4.37,0-8.27-1.04-11.69-3.13c-3.43-2.08-6.14-5.04-8.12-8.86
						c-1.99-3.82-2.98-8.32-2.98-13.48c0-5.16,0.97-9.68,2.9-13.56c1.94-3.87,4.62-6.87,8.05-9.01c3.42-2.13,7.37-3.2,11.84-3.2
						c3.97,0,7.64,0.87,11.02,2.61c3.38,1.74,6.11,4.22,8.19,7.45c2.09,3.22,3.13,7.22,3.13,11.99V108.8z"/>
					<polygon style="fill:#0060FC;" points="927.26,56.67 927.26,38.05 843.25,38.05 843.25,56.67 874.68,56.67 874.68,146.79 
						895.83,146.79 895.83,56.67 					"/>
					<path style="fill:#0060FC;" d="M999.3,103.89c0-7.15-1.49-13.83-4.46-20.04c-2.98-6.2-7.43-11.22-13.34-15.04
						c-5.9-3.82-13.23-5.74-21.97-5.74c-6.65,0-12.51,1.17-17.57,3.51c-5.07,2.33-9.31,5.46-12.74,9.38
						c-3.42,3.92-6.01,8.39-7.74,13.41c-1.74,5.01-2.61,10.2-2.61,15.56v2.83c0,5.17,0.87,10.23,2.61,15.19
						c1.73,4.97,4.32,9.46,7.74,13.49c3.43,4.02,7.75,7.22,12.96,9.6c5.21,2.39,11.29,3.58,18.25,3.58c6.65,0,12.58-1.15,17.8-3.43
						c5.21-2.28,9.5-5.51,12.88-9.68c3.38-4.17,5.66-9.04,6.85-14.6H978.9c-0.9,2.98-2.93,5.49-6.11,7.52
						c-3.18,2.04-7.3,3.06-12.36,3.06c-5.07,0-9.24-1.12-12.52-3.35c-3.27-2.24-5.71-5.32-7.29-9.24c-1.06-2.59-1.73-5.47-2.08-8.56
						h60.76V103.89z M938.88,98.67c0.41-2.29,1.01-4.4,1.81-6.33c1.64-3.92,4.05-6.92,7.22-9.01c3.18-2.08,7.05-3.13,11.62-3.13
						c4.57,0,8.37,1,11.4,2.98c3.03,1.99,5.29,4.82,6.78,8.49c0.84,2.09,1.42,4.44,1.78,7H938.88z"/>
					<polygon style="fill:#0060FC;" points="1057.1,100.39 1084.61,65.9 1063.01,65.9 1031.88,104.85 1031.88,38.05 1011.18,38.05 
						1011.18,146.79 1031.88,146.79 1031.88,108.95 1040.67,108.95 1067.78,146.79 1091.16,146.79 					"/>
				</g>
				<g>
					<path style="fill:#02DDC9;" d="M422.85,216.41c-3.06,2.19-6.8,3.29-11.24,3.29c-3.03,0-5.69-0.51-7.99-1.54
						c-2.3-1.03-4.23-2.47-5.8-4.34c-1.57-1.87-2.75-4.04-3.53-6.53c-0.78-2.49-1.18-5.19-1.18-8.11c0-3.03,0.39-5.79,1.18-8.28
						c0.78-2.49,1.93-4.65,3.45-6.49c1.51-1.84,3.41-3.26,5.68-4.26c2.27-1,4.87-1.5,7.79-1.5c2.87,0,5.44,0.47,7.71,1.42
						c2.27,0.95,4.15,2.35,5.64,4.22c1.49,1.87,2.45,4.15,2.88,6.86h11.6c-0.49-4.65-1.92-8.72-4.3-12.21
						c-2.38-3.49-5.56-6.19-9.53-8.11c-3.98-1.92-8.64-2.88-13.99-2.88c-5.14,0-9.59,0.88-13.35,2.64c-3.76,1.76-6.86,4.1-9.29,7.02
						c-2.43,2.92-4.23,6.17-5.4,9.73c-1.16,3.57-1.74,7.19-1.74,10.87v1.78c0,3.3,0.57,6.73,1.7,10.3c1.14,3.57,2.91,6.87,5.31,9.9
						c2.41,3.03,5.53,5.49,9.37,7.38c3.84,1.89,8.44,2.84,13.79,2.84c5.62,0,10.47-1.05,14.52-3.16c4.06-2.11,7.25-4.92,9.57-8.44
						c2.32-3.51,3.76-7.38,4.3-11.6h-11.6C427.75,211.15,425.9,214.22,422.85,216.41z"/>
					<path style="fill:#02DDC9;" d="M529.2,187.36c-1.3-3.59-3.26-6.85-5.89-9.76c-2.62-2.92-5.89-5.27-9.78-7.02
						c-3.89-1.76-8.44-2.64-13.63-2.64c-5.24,0-9.82,0.87-13.71,2.64c-3.89,1.75-7.16,4.1-9.78,7.02c-2.62,2.91-4.59,6.17-5.89,9.76
						c-1.3,3.6-1.94,7.21-1.94,10.84v1.78c0,3.3,0.63,6.73,1.9,10.27c1.27,3.54,3.2,6.84,5.76,9.9s5.82,5.53,9.74,7.41
						c3.92,1.9,8.56,2.84,13.91,2.84c5.3,0,9.91-0.94,13.83-2.84c3.92-1.88,7.17-4.36,9.74-7.41s4.49-6.36,5.76-9.9
						c1.27-3.54,1.9-6.96,1.9-10.27v-1.78C531.14,194.57,530.5,190.96,529.2,187.36z M518.13,206.99c-0.89,2.47-2.2,4.66-3.89,6.58
						c-1.71,1.91-3.77,3.41-6.17,4.49c-2.4,1.09-5.12,1.63-8.15,1.63c-3.03,0-5.76-0.53-8.19-1.63c-2.43-1.08-4.51-2.58-6.2-4.49
						c-1.71-1.93-3-4.11-3.91-6.58c-0.89-2.46-1.34-5.07-1.34-7.82c0-2.98,0.45-5.71,1.34-8.19c0.9-2.49,2.2-4.66,3.91-6.49
						c1.69-1.84,3.77-3.28,6.2-4.3c2.43-1.04,5.16-1.54,8.19-1.54c2.98,0,5.68,0.51,8.11,1.54c2.43,1.02,4.51,2.46,6.21,4.3
						c1.69,1.83,3,4,3.89,6.49c0.89,2.49,1.34,5.22,1.34,8.19C519.47,201.93,519.02,204.54,518.13,206.99z"/>
					<polygon style="fill:#02DDC9;" points="595.98,205.01 594.52,205.01 579.67,169.64 563.93,169.64 563.93,228.86 574.48,228.86 
						574.48,182.16 589,216.77 600.76,216.77 615.29,181.98 615.29,228.86 626.72,228.86 626.72,169.64 610.74,169.64 					"/>
					<path style="fill:#02DDC9;" d="M703.82,178.6c-1.83-3-4.51-5.31-7.99-6.94c-3.48-1.62-7.72-2.43-12.7-2.43H662.7v59.62h11.52
						v-18.16h8.92c4.98,0,9.22-0.83,12.7-2.49c3.48-1.64,6.16-3.97,7.99-6.98c1.84-2.99,2.76-6.55,2.76-10.66v-1.3
						C706.58,185.16,705.67,181.61,703.82,178.6z M693.65,195.52c-0.85,1.61-2.06,2.9-3.66,3.81c-1.6,0.91-3.55,1.38-5.87,1.38h-9.9
						v-21.51h9.9c2.32,0,4.27,0.45,5.87,1.34c1.6,0.9,2.81,2.16,3.66,3.78c0.83,1.62,1.26,3.48,1.26,5.6
						C694.91,192.03,694.48,193.9,693.65,195.52z"/>
					<path style="fill:#02DDC9;" d="M775.96,205.58c0,2.87-0.53,5.35-1.58,7.46c-1.05,2.11-2.62,3.75-4.71,4.91
						c-2.08,1.16-4.61,1.74-7.59,1.74c-3.03,0-5.58-0.58-7.67-1.74c-2.08-1.16-3.66-2.81-4.75-4.95c-1.08-2.14-1.62-4.61-1.62-7.42
						v-35.94h-11.52v35.29c0,5.14,0.99,9.61,2.96,13.43c1.97,3.81,4.85,6.77,8.64,8.88c3.78,2.11,8.44,3.16,13.95,3.16
						c5.52,0,10.17-1.05,13.95-3.16c3.78-2.11,6.64-5.07,8.56-8.88c1.92-3.81,2.88-8.29,2.88-13.43v-35.29h-11.52V205.58z"/>
					<polygon style="fill:#02DDC9;" points="817.27,179.78 834.38,179.78 834.38,228.86 845.9,228.86 845.9,179.78 863.02,179.78 
						863.02,169.64 817.27,169.64 					"/>
					<rect x="893.39" y="169.64" style="fill:#02DDC9;" width="11.52" height="59.22"/>
					<polygon style="fill:#02DDC9;" points="985.86,219.29 984.81,219.29 959.9,169.64 941,169.64 941,228.86 951.71,228.86 
						951.71,179.21 952.84,179.21 977.75,228.86 996.73,228.86 996.73,169.64 985.86,169.64 					"/>
					<path style="fill:#02DDC9;" d="M1058.88,207.36h16.71v6.54c-1.2,1.36-2.67,2.56-4.46,3.56c-2.98,1.65-6.44,2.47-10.38,2.47
						c-2.97,0-5.65-0.47-8.03-1.42c-2.38-0.95-4.41-2.32-6.08-4.14c-1.68-1.81-2.98-4.02-3.89-6.61c-0.92-2.6-1.38-5.54-1.38-8.84
						c0-3.03,0.42-5.79,1.26-8.28c0.84-2.49,2.04-4.62,3.61-6.41c1.57-1.78,3.47-3.16,5.72-4.14c2.24-0.97,4.75-1.46,7.5-1.46
						c2.76,0,5.29,0.49,7.59,1.46c2.3,0.97,4.2,2.37,5.72,4.18c1.51,1.81,2.46,3.99,2.84,6.53h11.6c-0.43-4.54-1.87-8.53-4.3-11.97
						c-2.43-3.43-5.65-6.11-9.65-8.03c-4-1.92-8.6-2.88-13.79-2.88c-4.81,0-9.07,0.85-12.78,2.56c-3.71,1.7-6.82,3.99-9.33,6.85
						c-2.52,2.87-4.42,6.08-5.72,9.65c-1.3,3.57-1.95,7.22-1.95,10.95v1.78c0,3.95,0.66,7.75,1.99,11.4
						c1.33,3.65,3.3,6.92,5.92,9.82c2.62,2.89,5.87,5.19,9.73,6.9c3.87,1.7,8.34,2.56,13.43,2.56c5.68,0,10.71-1.07,15.09-3.2
						c4.38-2.14,7.84-5.12,10.38-8.97v-10.87h4.95v-8.6h-32.29V207.36z"/>
				</g>
			</g>
		</g>
	</g>
	<linearGradient id="SVGID_3_" gradientUnits="userSpaceOnUse" x1="230.1161" y1="80.8527" x2="230.822" y2="24.3822">
		<stop  offset="0.135" style="stop-color:#000000"/>
		<stop  offset="0.8037" style="stop-color:#5EDBF9;stop-opacity:0"/>
	</linearGradient>
	<path style="fill:url(#SVGID_3_);" d="M257.37,59.83c-11.87-1.44-22.56-0.27-30.05,1.16c0.25-0.06,0.5-0.1,0.75-0.15
		c-5.96-10.11-14.41-18.49-24.39-24.39c6.34-3.9,16.38-9.08,28.73-12C243.17,34.05,251.82,46.09,257.37,59.83z"/>
</g>
<g>
</g>
<g>
</g>
<g>
</g>
<g>
</g>
<g>
</g>
<g>
</g>
<g>
</g>
<g>
</g>
<g>
</g>
<g>
</g>
<g>
</g>
<g>
</g>
<g>
</g>
<g>
</g>
<g>
</g>
</svg>
